<svg width="60" height="90" viewBox="0 0 60 90" fill="none" xmlns="http://www.w3.org/2000/svg">
<g id="Frame" clip-path="url(#clip0_167_598)">
<g id="Group">
<path id="path0 fill 1" d="M15.3433 89.6612C23.3818 89.6612 29.902 83.0214 29.902 74.8355V60.0098H15.3433C7.3048 60.0098 0.784668 66.6495 0.784668 74.8355C0.784668 83.0214 7.3048 89.6612 15.3433 89.6612Z" fill="#0ACF83"/>
<path id="path1 fill 3" d="M0.784668 45.1655C0.784668 36.9796 7.3048 30.3398 15.3433 30.3398H29.902V60.0094H15.3433C7.3048 59.9912 0.784668 53.3515 0.784668 45.1655Z" fill="#A259FF"/>
<path id="path1 fill 2" d="M0.784668 15.4956C0.784668 7.30965 7.3048 0.669922 15.3433 0.669922H29.902V30.3395H15.3433C7.3048 30.3395 0.784668 23.6816 0.784668 15.4956Z" fill="#F24E1E"/>
<path id="path2 fill 1" d="M29.9199 0.669922H44.4786C52.5171 0.669922 59.0372 7.30965 59.0372 15.4956C59.0372 23.6816 52.5171 30.3213 44.4786 30.3213H29.9199V0.669922Z" fill="#FF7262"/>
<path id="path3 fill 1" d="M59.0372 45.1655C59.0372 53.3515 52.5171 59.9913 44.4786 59.9913C36.4401 59.9913 29.9199 53.3515 29.9199 45.1655C29.9199 36.9796 36.4401 30.3398 44.4786 30.3398C52.5171 30.3398 59.0372 36.9796 59.0372 45.1655Z" fill="#1ABCFE"/>
</g>
</g>
<defs>
<clipPath id="clip0_167_598">
<rect width="58.2524" height="88.9906" fill="white" transform="translate(0.784668 0.669922)"/>
</clipPath>
</defs>
</svg>
