<svg width="90" height="90" viewBox="0 0 90 90" fill="none" xmlns="http://www.w3.org/2000/svg">
<g id="Group">
<path id="Vector" d="M4.22607 4.42578H85.8915V85.2804H4.22607V4.42578Z" fill="url(#paint0_radial_167_561)"/>
<path id="Vector_2" d="M4.22606 4.42575H85.8914V85.2803H4.22606V4.42575ZM0.513184 89.0596H89.5864V0.646484H0.513184V89.0596ZM60.5796 36.9311C57.6522 36.9311 56.6525 38.4392 56.6525 39.6929C56.6525 41.0556 57.313 42.0004 61.2579 44.0717C67.0771 46.9425 68.8979 49.7043 68.8979 53.7379C68.8979 59.7884 64.3639 63.0408 58.2412 63.0408C55.0103 63.0408 52.2257 62.3685 50.637 61.4237C50.3692 61.3146 50.3335 61.1148 50.3335 60.8241V55.246C50.3335 54.8645 50.512 54.7554 50.7798 54.9371C53.1182 56.4815 55.7957 57.172 58.2412 57.172C61.1687 57.172 62.4004 55.9183 62.4004 54.2285C62.4004 52.8658 61.5435 51.6666 57.795 49.6861C52.5291 47.1242 50.3335 44.526 50.3335 40.1653C50.3335 35.2958 54.0821 31.244 60.5796 31.244C63.7748 31.244 66.0061 31.7346 67.22 32.2979C67.5234 32.4796 67.5948 32.7884 67.5948 33.061V38.2393C67.5948 38.5482 67.4163 38.7299 67.0415 38.6209C65.3992 37.567 62.9894 36.9311 60.5796 36.9311ZM28.6632 41.419C29.52 41.4917 30.1805 41.4917 31.662 41.4917C35.9997 41.4917 40.0874 39.9472 40.0874 33.9331C40.0874 29.1364 37.16 26.7198 32.2154 26.7198C30.7338 26.7198 29.3237 26.7925 28.6453 26.8288L28.6632 41.419ZM22.0407 21.3598C22.0407 21.0872 22.5584 20.9055 22.8618 20.9055C25.2359 20.7965 28.7703 20.7239 32.4296 20.7239C42.7114 20.7239 46.7277 26.4654 46.7277 33.7878C46.7277 43.3813 39.8911 47.5058 31.5014 47.5058C30.0912 47.5058 29.6093 47.4331 28.6096 47.4331V61.9324C28.6096 62.2413 28.5025 62.3867 28.1634 62.3867H22.487C22.1835 62.3867 22.0407 62.2776 22.0407 61.9324V21.3598Z" fill="#31C5F0"/>
</g>
<defs>
<radialGradient id="paint0_radial_167_561" cx="0" cy="0" r="1" gradientUnits="userSpaceOnUse" gradientTransform="translate(31.1305 22.5656) scale(62.0565 61.1565)">
<stop stop-color="#34364E" stop-opacity="0.98"/>
<stop offset="1" stop-color="#0C0824"/>
</radialGradient>
</defs>
</svg>
