<svg width="90" height="90" viewBox="0 0 90 90" fill="none" xmlns="http://www.w3.org/2000/svg">
<g id="Group">
<path id="Vector" d="M4.3623 4.45312H86.1228V85.458H4.3623V4.45312Z" fill="url(#paint0_radial_167_586)"/>
<g id="Group_2">
<path id="Vector_2" d="M4.3623 4.45367H86.1228V85.4586H4.3623V4.45367ZM0.646729 89.2423H89.8563V0.669922H0.646729V89.2423ZM63.7579 43.3644C65.6514 43.3644 66.3302 43.3644 66.5089 43.2916C66.5089 43.0188 66.5803 42.8369 66.5803 42.6549C66.5803 40.6175 65.6157 36.8338 61.7572 36.8338C58.1846 36.8338 56.6662 40.0172 56.291 43.3826H63.7579V43.3644ZM56.2196 48.5489C56.291 53.6606 58.6669 57.0987 64.3295 57.0987C66.5267 57.0987 68.4202 56.7894 70.3852 55.9344C70.6532 55.8253 70.8318 55.8617 70.8318 56.2073V60.937C70.8318 61.319 70.7246 61.5009 70.4567 61.701C68.4917 62.6833 66.0266 63.1381 62.9898 63.1381C53.1828 63.1381 49.503 55.7525 49.503 47.5483C49.503 38.6165 54.0403 31.3037 62.0252 31.3037C70.1351 31.3037 72.9575 38.2345 72.9575 43.8737C72.9575 45.6929 72.8504 47.1663 72.6539 47.894C72.5824 48.2032 72.4752 48.3124 72.1716 48.3851C71.4213 48.4943 69.242 48.658 65.973 48.658H56.2375V48.5489H56.2196ZM36.2841 44.6923C35.248 40.4902 32.7114 31.3401 31.7825 26.9015H31.7111C30.9251 31.3219 28.8887 38.8166 27.3703 44.6923H36.2841ZM25.8519 50.8227L22.9223 62.1376C22.8509 62.4468 22.7437 62.556 22.3686 62.556H16.8845C16.5094 62.556 16.4379 62.4468 16.5094 61.9921L27.0666 24.4093C27.2452 23.7362 27.3703 23.1905 27.4417 21.2986C27.4417 21.0257 27.5489 20.9166 27.7454 20.9166H35.5517C35.8197 20.9166 35.9268 20.9894 35.9983 21.2986L47.806 62.0648C47.8774 62.3741 47.806 62.556 47.5023 62.556H41.3752C41.0715 62.556 40.8928 62.4468 40.8214 62.174L37.7668 50.8227H25.8519Z" fill="#D8A1FF"/>
</g>
</g>
<defs>
<radialGradient id="paint0_radial_167_586" cx="0" cy="0" r="1" gradientUnits="userSpaceOnUse" gradientTransform="translate(31.3148 22.6143) scale(62.1407 61.2673)">
<stop stop-color="#442F55" stop-opacity="0.98"/>
<stop offset="1" stop-color="#12002C"/>
</radialGradient>
</defs>
</svg>
