<svg width="90" height="90" viewBox="0 0 90 90" fill="none" xmlns="http://www.w3.org/2000/svg">
<g id="Group">
<g id="Group 2">
<path id="Vector" d="M4.29541 4.45312H86.0559V85.458H4.29541V4.45312Z" fill="url(#paint0_radial_167_573)"/>
<g id="Group_2">
<path id="Vector_2" d="M4.29541 4.45367H86.0559V85.4586H4.29541V4.45367ZM0.579834 89.2423H89.7893V0.669922H0.579834V89.2423ZM59.0108 32.2496C59.0108 31.9404 59.118 31.7949 59.4574 31.7949H65.2987C65.6024 31.7949 65.7453 31.904 65.7453 32.2496V62.1194C65.7453 62.4286 65.6738 62.5742 65.2987 62.5742H59.5288C59.1537 62.5742 59.0465 62.3923 59.0465 62.083V32.2496H59.0108ZM58.5999 23.6453C58.5999 21.2258 60.2791 19.7888 62.387 19.7888C64.6556 19.7888 66.174 21.335 66.174 23.6453C66.174 26.1374 64.5841 27.5018 62.3155 27.5018C60.1719 27.52 58.5999 26.1556 58.5999 23.6453ZM41.8799 44.6923C40.8438 40.4902 38.3786 31.3401 37.4497 26.9015H37.3783C36.5923 31.3219 34.6273 38.8166 33.0732 44.6923H41.8799ZM31.5548 50.8227L28.6253 62.174C28.5538 62.4832 28.4466 62.556 28.0715 62.556H22.6053C22.2302 62.556 22.1587 62.4468 22.2302 61.9921L32.7874 24.3729C32.9661 23.6998 33.0911 23.0813 33.1625 21.2258C33.1625 20.953 33.2697 20.8438 33.4662 20.8438H41.2725C41.5405 20.8438 41.6476 20.9166 41.7191 21.2258L53.5446 62.0648C53.6161 62.3741 53.5446 62.556 53.2409 62.556H47.0781C46.7744 62.556 46.5958 62.4832 46.5243 62.2104L43.4697 50.8227H31.5548Z" fill="#FF7F18"/>
</g>
</g>
</g>
<defs>
<radialGradient id="paint0_radial_167_573" cx="0" cy="0" r="1" gradientUnits="userSpaceOnUse" gradientTransform="translate(31.25 22.6304) scale(62.1406 61.2673)">
<stop stop-color="#423325" stop-opacity="0.98"/>
<stop offset="1" stop-color="#1C0A00"/>
</radialGradient>
</defs>
</svg>
